# xmcd
#
# Track frame offsets: 
#        150
#        11442
#        21737
#        33432
#        46077
#        60357
#        69360
#        79635
#        90015
#        100247
#        111995
#        126265
#        137902
#        149612
#        164785
#        175295
#        185655
#        194602
#        205415
#        218342
#
# Disc length: 3048 seconds
#
# Revision: 2
# Processed by: cddbd v1.4PL0 Copyright (c) Steve Scherf et al.
# Submitted via: ExactAudioCopy v0.90b4
#
DISCID=200be614
DTITLE=Red Simpson - The Best Of Red Simpson
DYEAR=1900
DGENRE=
TTITLE0=Truck Drivin' Fool
TTITLE1=The Highway Patrol
TTITLE2=Nitro Express
TTITLE3=Roll, Truck, Roll
TTITLE4=I'm A Truck
TTITLE5=Motivation Man
TTITLE6=Happy Go Lucky Truck Driver
TTITLE7=Truck Drivin' Man
TTITLE8=Six Days On The Road
TTITLE9=Give Me Forty Acres
TTITLE10=Truck Driver's Blues
TTITLE11=Highway Man
TTITLE12=Diesel Smoke, Dangerous Curves
TTITLE13=Born To Be A Trucker
TTITLE14=Johnny Law
TTITLE15=Jeannie With The Light Brown Cadillac
TTITLE16=Mini-Skirt Minnie
TTITLE17=Country Western Truck Drivin' Singer
TTITLE18=Awful Lot To Learn About Truck Drivin'
TTITLE19=Truckin' Trees For Christmas
EXTD=
EXTT0=
EXTT1=
EXTT2=
EXTT3=
EXTT4=
EXTT5=
EXTT6=
EXTT7=
EXTT8=
EXTT9=
EXTT10=
EXTT11=
EXTT12=
EXTT13=
EXTT14=
EXTT15=
EXTT16=
EXTT17=
EXTT18=
EXTT19=
PLAYORDER=
